PathFileType	4	(X/Y/Z)	D:\TRACE\v60_Jaco2_6-2-23\BothDRS_Motion3_1-v60.trc
DataRate	CameraRate	NumFrames	NumMarkers	Units	OrigDataRate	OrigDataStartFrame	OrigNumFrames
100.00	100.00	      38	9	mm	100.00	6126	      7000
Frame#	Time	front left toe			Front right toe			aft left toe			aft right toe			Arm			FL body			FR body			AL Body			AR Body			
		X1	Y1	Z1	X2	Y2	Z2	X3	Y3	Z3	X4	Y4	Z4	X5	Y5	Z5	X6	Y6	Z6	X7	Y7	Z7	X8	Y8	Z8	X9	Y9	Z9	

6126	61.250	-205.64966	18.79929	-123.74811	194.85121	151.62329	-145.25328	-152.44615	134.95718	493.10440	200.83806	-1.38496	475.24606	-2.51949	1076.77576	-630.11713	-91.12367	514.88562	-308.83530	67.31255	516.35785	-315.80798	-41.84776	545.02545	634.46912	110.53922	537.71747	627.28436	
6127	61.260	-205.73253	18.90309	-123.68778	194.34483	147.15356	-145.91284	-152.25758	131.43204	493.41953	200.77155	-1.51931	475.15851	-2.72672	1076.61621	-630.22003	-91.26808	514.98486	-308.78140	66.85632	516.45752	-315.91309	-40.69999	545.28345	634.32416	111.62856	537.87524	627.05347	
6128	61.270	-205.80396	19.03347	-123.50262	193.51749	141.51457	-146.39624	-152.03455	127.17754	493.41449	200.72369	-1.60174	475.09311	-3.08289	1076.62451	-630.40668	-91.34983	515.02826	-308.69537	66.60503	516.43262	-316.00613	-39.51814	545.40259	634.30969	111.93367	537.64404	626.10858	
6129	61.280	-205.84326	19.02888	-123.42079	191.21494	134.21318	-147.41273	-151.20506	121.55679	493.62042	200.76610	-1.65678	475.30444	-3.48027	1076.76221	-630.46655	-91.45643	515.04871	-308.61093	66.37262	516.30219	-316.12842	-38.52298	545.47900	634.40375	113.53441	537.73773	626.66992	
6130	61.290	-205.85970	19.03007	-123.36243	190.58987	126.60251	-148.40726	-150.93246	114.79351	493.52155	200.65076	-1.94194	475.09485	-3.66624	1076.89160	-630.43689	-91.59809	515.07031	-308.55594	66.20370	516.16632	-316.27203	-37.02665	545.60718	634.45502	114.11794	537.39270	625.72717	
6131	61.300	-205.91965	19.05136	-123.28990	190.31119	118.19382	-150.18059	-151.18022	107.01791	493.12881	200.64487	-2.07167	475.14920	-3.79494	1076.95117	-630.34033	-91.70923	515.05389	-308.49774	65.99606	516.15613	-316.19965	-35.76801	545.48389	634.51465	114.60749	537.17120	625.53284	
6132	61.310	-206.05989	19.10719	-123.20444	190.24303	109.80363	-151.92548	-150.32928	97.58534	492.90149	200.72260	-2.17374	475.20166	-3.64704	1076.85486	-630.29230	-91.76024	515.01520	-308.39322	66.41353	515.44482	-316.44632	-34.35443	545.44904	634.29700	117.05096	536.77783	625.22223	
6133	61.320	-206.11430	19.08423	-123.15877	189.83911	100.76134	-153.76387	-149.46887	87.04185	492.47644	200.89868	-2.26871	475.23282	-3.22901	1076.61023	-630.31903	-91.71202	514.77991	-308.21594	66.95061	514.99060	-316.90344	-32.99397	545.26892	634.34991	118.48083	536.44067	625.00562	
6134	61.330	-206.20091	19.07861	-123.08322	189.31718	91.21281	-155.51686	-148.24208	76.70228	492.21066	200.81419	-2.60582	475.18802	-2.70184	1076.11865	-630.44922	-91.60599	514.60211	-308.04352	66.94066	514.73743	-317.04626	-31.33092	544.96558	634.12598	119.81000	536.10742	624.86230	
6135	61.340	-206.22076	19.07455	-123.03812	189.02368	81.20534	-156.32951	-146.42365	66.06742	491.61124	200.84030	-3.05480	475.17102	-2.24267	1075.71033	-630.71155	-91.54467	514.64838	-308.15952	66.88129	514.56909	-317.41104	-29.88815	544.60846	634.08618	121.25710	535.30560	624.54919	
6136	61.350	-206.31943	19.14593	-122.97063	188.21080	71.48280	-157.53439	-143.88438	56.53164	491.12653	200.96469	-3.37889	475.10715	-1.45003	1075.29028	-630.94128	-91.27646	514.58575	-308.19632	67.12824	514.43085	-317.68839	-28.57432	544.41266	634.28705	122.65423	535.03375	624.33301	
6137	61.360	-206.33978	19.20289	-122.94133	189.21909	62.14253	-157.97202	-141.65092	47.31809	490.32663	200.92274	-3.51614	474.99225	-0.94291	1075.16431	-631.06659	-91.13882	514.62018	-308.36246	66.95046	514.10583	-317.71329	-26.52063	544.08301	633.86420	123.09273	534.58575	623.70709	
6138	61.370	-206.36732	19.24635	-122.88140	191.31084	53.89332	-158.25575	-140.89638	39.40641	489.57886	201.00005	-3.55654	474.98071	-0.15510	1075.13660	-631.05963	-90.88893	514.50128	-308.57095	67.17268	513.76764	-317.76273	-25.47301	543.79681	633.47583	125.48113	534.05048	623.12671	
6139	61.380	-206.39801	19.31882	-122.79153	193.38686	46.50522	-158.87070	-138.58485	30.90257	489.14688	201.21365	-3.63630	474.93054	0.13228	1075.45508	-631.35309	-90.46973	514.29980	-308.82986	67.65478	513.42621	-318.50729	-23.98149	543.51855	633.29230	128.50885	534.29907	623.39001	
6140	61.390	-206.50372	19.42536	-122.73935	194.45410	40.05404	-159.41675	-136.86861	24.06891	488.79623	201.24887	-3.67437	474.95285	0.87048	1075.35791	-631.56622	-90.21384	514.23633	-309.14694	68.63890	513.21429	-319.27518	-21.89894	543.24908	632.81195	129.92659	533.78461	622.92297	
6141	61.400	-206.57545	19.57164	-122.57368	197.43732	34.16715	-160.04559	-135.29298	17.75452	487.96780	201.31653	-3.68827	474.97119	1.49218	1075.29993	-631.93427	-89.72033	514.17670	-309.51389	69.33089	512.95935	-319.84534	-20.00178	542.84106	632.16168	131.13637	532.82483	622.02832	
6142	61.410	-206.57039	19.72910	-122.55603	197.98958	27.87349	-161.30751	-134.35063	11.34078	487.57281	201.32109	-3.74506	474.95197	2.06540	1075.24658	-632.34772	-89.07522	514.14294	-309.93915	69.64358	512.95581	-320.64322	-19.06063	542.51892	631.87830	132.41252	532.15454	620.86182	
6143	61.420	-206.42809	19.80972	-122.56674	198.06068	25.16514	-163.91716	-133.61902	4.80478	486.13324	201.36952	-3.79512	474.98737	3.04723	1075.17249	-632.90826	-88.36802	514.08856	-310.48465	70.22947	512.92511	-321.34457	-17.51081	542.22925	631.30896	134.11401	531.86499	619.88660	
6144	61.430	-206.17940	19.93817	-122.47411	198.92456	22.46399	-163.39561	-132.23465	1.25596	483.53708	201.35895	-3.92014	474.90274	3.78609	1075.26074	-633.68298	-87.77666	514.49310	-310.88608	70.73747	513.11188	-322.05035	-15.60925	541.84509	630.43872	135.64670	531.32965	619.21460	
6145	61.440	-206.06146	20.08496	-122.55685	199.28227	22.81143	-164.20387	-133.57808	0.25370	484.04376	201.26369	-3.90881	474.76135	4.40468	1075.50281	-634.43665	-87.27538	514.93274	-311.36108	70.95792	513.46844	-322.80307	-13.67472	542.59210	629.66821	139.13599	532.51355	619.01617	
6146	61.450	-206.02560	20.42780	-122.69314	199.19664	22.87631	-163.51892	-133.92213	0.44050	484.48065	201.26619	-3.68648	474.55872	5.11973	1075.92590	-635.05847	-86.86342	515.27393	-311.65201	71.53506	513.60217	-323.27155	-11.66941	544.55023	629.25476	140.34203	533.62323	618.19482	
6147	61.460	-205.31232	22.58150	-122.74524	198.60834	21.34734	-164.36029	-133.17369	0.55676	485.42050	200.85989	-2.05257	474.28040	5.75356	1076.48315	-636.28949	-86.63020	515.69977	-312.04318	71.75534	513.82733	-323.85858	-10.36580	546.28333	629.10492	142.41351	535.07831	617.77423	
6148	61.470	-201.23212	26.74762	-120.53918	198.78583	21.30378	-164.36282	-132.20000	0.14431	484.82526	198.83984	0.98373	478.73322	5.64313	1076.84497	-638.07373	-86.39990	516.63129	-312.40668	71.97361	514.54938	-324.39719	-8.43398	547.18182	628.55536	141.01556	535.50037	616.03461	
6149	61.480	-196.35364	30.88505	-116.97594	198.61140	21.31709	-164.37973	-132.36870	0.41641	485.02847	197.07785	8.29273	479.67227	6.53688	1076.29626	-639.03430	-85.99663	517.23108	-312.61194	72.33946	514.93237	-324.97607	-6.87549	547.59033	627.90869	145.50401	536.02582	616.41864	
6150	61.490	-194.00693	41.50505	-116.98139	198.35898	21.11654	-164.55841	-132.37019	0.41095	484.70267	195.44853	17.46309	480.56030	7.12659	1075.92139	-639.08966	-85.56566	517.70020	-312.98492	72.78610	515.17853	-325.47168	-5.79744	548.14496	627.56787	146.72574	536.23621	616.02106	
6151	61.500	-192.66451	53.25237	-118.28001	198.42609	21.06897	-164.45573	-132.38559	0.16792	484.31189	195.39166	30.29735	478.33249	8.01958	1076.02917	-639.13879	-85.13351	517.79083	-313.27753	73.00756	515.06104	-325.97195	-4.47352	548.44177	627.28693	147.55075	536.34979	615.42035	
6152	61.510	-194.07060	65.98296	-120.04718	198.63655	20.91494	-164.30009	-132.35764	0.20690	484.47650	196.87003	41.42962	475.83850	9.12420	1076.48499	-639.54803	-84.24699	517.56348	-313.80432	74.13553	514.69647	-326.28531	-4.12869	548.36780	627.00922	148.26129	536.13586	615.04669	
6153	61.520	-194.06329	79.95602	-122.33898	198.70528	20.57729	-164.21637	-132.69357	0.19614	484.36624	201.92401	55.46983	473.35587	10.04150	1076.91687	-639.82086	-83.64523	517.49835	-314.16476	74.47395	514.33826	-326.73047	-3.66191	547.76660	626.40424	147.15578	535.23877	614.11328	
6154	61.530	-194.30759	93.32108	-123.99383	198.73726	20.42847	-164.22166	-133.36563	0.59396	484.40405	206.93333	68.27309	470.83585	11.68309	1076.64880	-639.66412	-83.06258	517.37036	-314.35190	75.14882	513.92773	-326.70728	-3.90861	547.22583	626.07861	147.25047	534.31854	613.93585	
6155	61.540	-193.05110	106.34160	-125.77758	198.74477	20.36562	-164.10851	-133.62436	0.52330	484.44739	211.26039	80.62286	468.55722	13.33715	1076.30469	-639.55011	-82.43703	517.29272	-314.44141	75.84476	513.64569	-326.76959	-3.89881	546.81232	626.01715	147.54483	533.89636	613.89020	
6156	61.550	-192.16121	118.72303	-127.13033	198.74445	20.29099	-164.09917	-133.83295	0.50162	484.44098	214.23553	92.35664	466.63019	15.39567	1076.14209	-639.63947	-81.85680	517.18311	-314.63870	76.37881	513.53064	-326.87997	-3.66850	546.40491	625.97162	147.49713	533.27216	614.00830	
6157	61.560	-191.19356	129.63333	-128.56795	198.81715	20.23528	-164.14104	-133.91719	0.54384	484.37585	218.12938	104.30506	465.48862	17.55664	1076.15015	-639.89685	-81.60345	517.19745	-314.85715	76.67464	513.37604	-327.01407	-3.48602	546.23950	625.93701	147.61255	532.93121	613.99945	
6158	61.570	-190.26213	139.57564	-129.66762	198.83519	20.21167	-164.10439	-133.99158	0.61487	484.35925	219.10353	114.91763	463.82120	20.09762	1075.84119	-639.78461	-81.16256	517.01245	-315.04883	77.16848	513.12445	-327.04620	-3.47122	546.39819	625.84039	147.61317	532.92059	614.01312	
6159	61.580	-189.84358	148.30006	-130.55460	198.79645	20.22160	-164.10114	-133.96243	0.66457	484.37021	221.03549	124.00604	462.82126	21.51194	1075.86865	-639.90094	-80.83323	516.96814	-315.06320	77.60506	512.93390	-326.97202	-3.66825	546.57043	625.67181	147.52219	533.06116	614.08081	
6160	61.590	-189.28638	155.32918	-131.06256	198.79326	20.15409	-164.05930	-133.67566	0.30730	484.23355	222.58556	129.69554	462.33215	22.55724	1075.61768	-640.07507	-80.26995	517.02460	-314.91159	77.91745	512.76465	-326.93234	-3.87334	546.94403	625.70648	147.70534	533.19312	614.22943	
6161	61.600	-188.95839	158.65517	-130.86098	198.80206	20.16268	-164.01195	-133.70515	0.33188	484.21823	225.34705	132.53615	462.42285	23.55638	1075.33582	-640.26807	-79.85944	517.12177	-314.92361	78.50286	512.82916	-326.61414	-4.17376	547.26129	626.05133	147.53601	533.42059	614.33771	
6162	61.610	-188.42148	157.89919	-130.28531	198.80116	20.17170	-164.03510	-133.74451	0.38174	484.24887	227.07520	131.58493	463.00861	24.51938	1074.77515	-640.18951	-78.93384	517.49725	-314.76779	79.43725	512.82416	-326.33658	-4.30727	547.47296	625.98480	147.20699	533.57996	614.76190	
6163	61.620	-187.75807	154.23419	-130.05013	198.80725	20.15694	-164.01126	-133.74702	0.48299	484.21008	229.07454	128.37985	463.58704	25.37358	1074.57141	-640.11945	-78.35929	517.72357	-314.91876	80.02393	512.95752	-326.11777	-5.01935	547.79059	626.14502	146.63730	533.69305	615.23956	
